<svg xmlns="http://www.w3.org/2000/svg" xmlns:xlink="http://www.w3.org/1999/xlink" style="margin:auto;background:#012c32;display:block;z-index:1;position:relative" width="1366" height="624" preserveAspectRatio="xMidYMid" viewBox="0 0 1366 624">
<g transform="translate(683,312) scale(1,1) translate(-683,-312)"><path d="M-100 372.81C-74.41 371.6 -73.94 369.01 -49.48 369.01S-22.68 370.3 1.03 370.3S27.36 370.22 51.55 370.22S77.47 367.04 102.06 367.04S128.25 367.34 152.58 367.34S179.39 371.98 203.1 371.98S228.68 374.96 253.61 374.96S279.23 370.36 304.13 370.36S329.63 364.01 354.65 364.01S381.42 365.96 405.16 365.96S430.64 374.06 455.68 374.06S482.46 369.04 506.19 369.04S532.14 362.25 556.71 362.25S583.27 370.27 607.23 370.27S632.64 377.35 657.74 377.35S684.32 375.41 708.26 375.41S734.84 368.55 758.77 368.55S785.04 364.28 809.29 364.28S835.3 367.07 859.81 367.07S885.11 365.48 910.32 365.48S936.81 374.48 960.84 374.48S986.77 367.7 1011.35 367.7S1038.05 371.7 1061.87 371.7S1087.44 364.2 1112.39 364.2S1138.65 373.31 1162.9 373.31S1188.51 371.52 1213.42 371.52S1239.06 372.54 1263.94 372.54S1289.58 370.47 1314.45 370.47S1339.73 376.32 1364.97 376.32S1390.63 367.39 1415.48 367.39S1441.97 369.49 1466 369.49S1492.44 377.5 1516.52 377.5L1466 624 L-100 624 Z" fill="#0f3135" stroke-width="0">
  <animate attributeName="d" dur="25s" repeatCount="indefinite" values="M-100 372.81C-74.41 371.6 -73.94 369.01 -49.48 369.01S-22.68 370.3 1.03 370.3S27.36 370.22 51.55 370.22S77.47 367.04 102.06 367.04S128.25 367.34 152.58 367.34S179.39 371.98 203.1 371.98S228.68 374.96 253.61 374.96S279.23 370.36 304.13 370.36S329.63 364.01 354.65 364.01S381.42 365.96 405.16 365.96S430.64 374.06 455.68 374.06S482.46 369.04 506.19 369.04S532.14 362.25 556.71 362.25S583.27 370.27 607.23 370.27S632.64 377.35 657.74 377.35S684.32 375.41 708.26 375.41S734.84 368.55 758.77 368.55S785.04 364.28 809.29 364.28S835.3 367.07 859.81 367.07S885.11 365.48 910.32 365.48S936.81 374.48 960.84 374.48S986.77 367.7 1011.35 367.7S1038.05 371.7 1061.87 371.7S1087.44 364.2 1112.39 364.2S1138.65 373.31 1162.9 373.31S1188.51 371.52 1213.42 371.52S1239.06 372.54 1263.94 372.54S1289.58 370.47 1314.45 370.47S1339.73 376.32 1364.97 376.32S1390.63 367.39 1415.48 367.39S1441.97 369.49 1466 369.49S1492.44 377.5 1516.52 377.5L1466 624 L-100 624 Z;M-100 364.37C-74.58 362.24 -73.88 371.6 -49.48 371.6S-23.27 367.06 1.03 367.06S27.39 370 51.55 370S77.83 368.78 102.06 368.78S128.79 363.22 152.58 363.22S178.87 365.64 203.1 365.64S228.84 366.78 253.61 366.78S279.66 374.16 304.13 374.16S330.55 370.68 354.65 370.68S380.88 368.22 405.16 368.22S431.2 372.92 455.68 372.92S481.13 368.89 506.19 368.89S532.46 373.22 556.71 373.22S582.98 371.58 607.23 371.58S633.1 363.52 657.74 363.52S684 367.94 708.26 367.94S734.11 375.5 758.77 375.5S785.2 372.76 809.29 372.76S834.71 373.74 859.81 373.74S886.48 372.68 910.32 372.68S936.32 374.87 960.84 374.87S986.12 367.05 1011.35 367.05S1036.64 362.66 1061.87 362.66S1087.63 375.99 1112.39 375.99S1137.76 365.72 1162.9 365.72S1188.82 368.31 1213.42 368.31S1239.84 373.92 1263.94 373.92S1290.4 376.08 1314.45 376.08S1340.38 368.39 1364.97 368.39S1390.92 369.43 1415.48 369.43S1442.07 369.05 1466 369.05S1492.59 367.7 1516.52 367.7L1466 624 L-100 624 Z;M-100 372.81C-74.41 371.6 -73.94 369.01 -49.48 369.01S-22.68 370.3 1.03 370.3S27.36 370.22 51.55 370.22S77.47 367.04 102.06 367.04S128.25 367.34 152.58 367.34S179.39 371.98 203.1 371.98S228.68 374.96 253.61 374.96S279.23 370.36 304.13 370.36S329.63 364.01 354.65 364.01S381.42 365.96 405.16 365.96S430.64 374.06 455.68 374.06S482.46 369.04 506.19 369.04S532.14 362.25 556.71 362.25S583.27 370.27 607.23 370.27S632.64 377.35 657.74 377.35S684.32 375.41 708.26 375.41S734.84 368.55 758.77 368.55S785.04 364.28 809.29 364.28S835.3 367.07 859.81 367.07S885.11 365.48 910.32 365.48S936.81 374.48 960.84 374.48S986.77 367.7 1011.35 367.7S1038.05 371.7 1061.87 371.7S1087.44 364.2 1112.39 364.2S1138.65 373.31 1162.9 373.31S1188.51 371.52 1213.42 371.52S1239.06 372.54 1263.94 372.54S1289.58 370.47 1314.45 370.47S1339.73 376.32 1364.97 376.32S1390.63 367.39 1415.48 367.39S1441.97 369.49 1466 369.49S1492.44 377.5 1516.52 377.5L1466 624 L-100 624 Z"></animate>
  <animateTransform attributeName="transform" type="translate" dur="25s" begin="0s" repeatCount="indefinite" values="0;10;0" calcMode="spline" keySplines="0.3 0 0.7 1;0.3 0 0.7 1"></animateTransform>
</path><path d="M-100 387.85C-72.69 391.88 -73.71 391.73 -48.15 391.73S-21.85 379.53 3.71 379.53S30.81 380.83 55.56 380.83S82.6 378.57 107.42 378.57S133.57 386.95 159.27 386.95S186.16 390.66 211.13 390.66S237.06 382.39 262.98 382.39S289.96 381.95 314.83 381.95S341.29 393.04 366.69 393.04S393.48 389.71 418.54 389.71S444.77 383.38 470.4 383.38S497.45 379.44 522.25 379.44S548.77 380.89 574.11 380.89S600.2 386.69 625.96 386.69S653.33 381.78 677.81 381.78S704.66 388.14 729.67 388.14S757.05 387.48 781.52 387.48S808.91 378.24 833.38 378.24S860.86 388.94 885.23 388.94S912.14 378.78 937.09 378.78S964.54 389.74 988.94 389.74S1016.05 383.05 1040.79 383.05S1068.21 395.24 1092.65 395.24S1118.72 390.68 1144.5 390.68S1171.45 382.95 1196.36 382.95S1223.74 388.61 1248.21 388.61S1274.67 392.26 1300.07 392.26S1327.24 386.68 1351.92 386.68S1377.93 385.94 1403.77 385.94S1430.74 389.18 1455.63 389.18S1482.12 392.65 1507.48 392.65L1466 624 L-100 624 Z" fill="#254346" stroke-width="0">
  <animate attributeName="d" dur="22.5s" repeatCount="indefinite" values="M-100 387.85C-72.69 391.88 -73.71 391.73 -48.15 391.73S-21.85 379.53 3.71 379.53S30.81 380.83 55.56 380.83S82.6 378.57 107.42 378.57S133.57 386.95 159.27 386.95S186.16 390.66 211.13 390.66S237.06 382.39 262.98 382.39S289.96 381.95 314.83 381.95S341.29 393.04 366.69 393.04S393.48 389.71 418.54 389.71S444.77 383.38 470.4 383.38S497.45 379.44 522.25 379.44S548.77 380.89 574.11 380.89S600.2 386.69 625.96 386.69S653.33 381.78 677.81 381.78S704.66 388.14 729.67 388.14S757.05 387.48 781.52 387.48S808.91 378.24 833.38 378.24S860.86 388.94 885.23 388.94S912.14 378.78 937.09 378.78S964.54 389.74 988.94 389.74S1016.05 383.05 1040.79 383.05S1068.21 395.24 1092.65 395.24S1118.72 390.68 1144.5 390.68S1171.45 382.95 1196.36 382.95S1223.74 388.61 1248.21 388.61S1274.67 392.26 1300.07 392.26S1327.24 386.68 1351.92 386.68S1377.93 385.94 1403.77 385.94S1430.74 389.18 1455.63 389.18S1482.12 392.65 1507.48 392.65L1466 624 L-100 624 Z;M-100 380.29C-73.69 382.5 -72.55 390.06 -48.15 390.06S-21.73 379.33 3.71 379.33S30.92 381.08 55.56 381.08S81.85 390.7 107.42 390.7S133.71 395.94 159.27 395.94S185.27 381.93 211.13 381.93S237.24 393.43 262.98 393.43S290.21 386.9 314.83 386.9S341.46 380.67 366.69 380.67S394.12 391.99 418.54 391.99S444.6 387.98 470.4 387.98S497.26 389.56 522.25 389.56S548.91 391.37 574.11 391.37S601.36 383.23 625.96 383.23S652.41 394.43 677.81 394.43S705.06 390.34 729.67 390.34S756.12 388 781.52 388S808.75 385 833.38 385S859.59 394.35 885.23 394.35S911.9 379.53 937.09 379.53S964.08 386.84 988.94 386.84S1015.65 383.42 1040.79 383.42S1068.04 389.21 1092.65 389.21S1118.94 382.33 1144.5 382.33S1171.28 381.23 1196.36 381.23S1223.17 383.45 1248.21 383.45S1275.26 382.96 1300.07 382.96S1327.46 380.22 1351.92 380.22S1379 390.37 1403.77 390.37S1430.91 380.94 1455.63 380.94S1481.73 392.91 1507.48 392.91L1466 624 L-100 624 Z;M-100 387.85C-72.69 391.88 -73.71 391.73 -48.15 391.73S-21.85 379.53 3.71 379.53S30.81 380.83 55.56 380.83S82.6 378.57 107.42 378.57S133.57 386.95 159.27 386.95S186.16 390.66 211.13 390.66S237.06 382.39 262.98 382.39S289.96 381.95 314.83 381.95S341.29 393.04 366.69 393.04S393.48 389.71 418.54 389.71S444.77 383.38 470.4 383.38S497.45 379.44 522.25 379.44S548.77 380.89 574.11 380.89S600.2 386.69 625.96 386.69S653.33 381.78 677.81 381.78S704.66 388.14 729.67 388.14S757.05 387.48 781.52 387.48S808.91 378.24 833.38 378.24S860.86 388.94 885.23 388.94S912.14 378.78 937.09 378.78S964.54 389.74 988.94 389.74S1016.05 383.05 1040.79 383.05S1068.21 395.24 1092.65 395.24S1118.72 390.68 1144.5 390.68S1171.45 382.95 1196.36 382.95S1223.74 388.61 1248.21 388.61S1274.67 392.26 1300.07 392.26S1327.24 386.68 1351.92 386.68S1377.93 385.94 1403.77 385.94S1430.74 389.18 1455.63 389.18S1482.12 392.65 1507.48 392.65L1466 624 L-100 624 Z"></animate>
  <animateTransform attributeName="transform" type="translate" dur="22.5s" begin="-2.25s" repeatCount="indefinite" values="0;10;0" calcMode="spline" keySplines="0.3 0 0.7 1;0.3 0 0.7 1"></animateTransform>
</path><path d="M-100 411.4C-72.57 402.13 -72.48 401.95 -46.73 401.95S-18.94 404.81 6.53 404.81S33.5 412.51 59.8 412.51S86.44 408.05 113.06 408.05S140.49 401.31 166.33 401.31S193.5 400.99 219.59 400.99S246.88 409.02 272.86 409.02S299.64 402.77 326.12 402.77S352.77 408.39 379.39 408.39S407.28 405.53 432.65 405.53S460.3 409.08 485.92 409.08S513.73 397.23 539.18 397.23S566.64 402.15 592.45 402.15S620.47 402.76 645.71 402.76S673.17 400.18 698.98 400.18S725.82 402.1 752.24 402.1S778.99 401.32 805.51 401.32S832.86 400.1 858.78 400.1S885.53 405.84 912.04 405.84S940.2 403.92 965.31 403.92S993.42 409.47 1018.57 409.47S1045.88 405.13 1071.84 405.13S1099.42 401.46 1125.1 401.46S1152.16 411.93 1178.37 411.93S1205.96 410.23 1231.63 410.23S1259.38 398.01 1284.9 398.01S1313.09 409.61 1338.16 409.61S1365.87 396.3 1391.43 396.3S1418.22 407.7 1444.69 407.7S1472.53 402.12 1497.96 402.12L1466 624 L-100 624 Z" fill="#3b5658" stroke-width="0">
  <animate attributeName="d" dur="20s" repeatCount="indefinite" values="M-100 411.4C-72.57 402.13 -72.48 401.95 -46.73 401.95S-18.94 404.81 6.53 404.81S33.5 412.51 59.8 412.51S86.44 408.05 113.06 408.05S140.49 401.31 166.33 401.31S193.5 400.99 219.59 400.99S246.88 409.02 272.86 409.02S299.64 402.77 326.12 402.77S352.77 408.39 379.39 408.39S407.28 405.53 432.65 405.53S460.3 409.08 485.92 409.08S513.73 397.23 539.18 397.23S566.64 402.15 592.45 402.15S620.47 402.76 645.71 402.76S673.17 400.18 698.98 400.18S725.82 402.1 752.24 402.1S778.99 401.32 805.51 401.32S832.86 400.1 858.78 400.1S885.53 405.84 912.04 405.84S940.2 403.92 965.31 403.92S993.42 409.47 1018.57 409.47S1045.88 405.13 1071.84 405.13S1099.42 401.46 1125.1 401.46S1152.16 411.93 1178.37 411.93S1205.96 410.23 1231.63 410.23S1259.38 398.01 1284.9 398.01S1313.09 409.61 1338.16 409.61S1365.87 396.3 1391.43 396.3S1418.22 407.7 1444.69 407.7S1472.53 402.12 1497.96 402.12L1466 624 L-100 624 Z;M-100 405.95C-71.89 393.72 -73.07 403.32 -46.73 403.32S-19.91 394.21 6.53 394.21S33.99 408.66 59.8 408.66S87.16 397.88 113.06 397.88S139.76 408.81 166.33 408.81S194.08 403.9 219.59 403.9S247.43 405.76 272.86 405.76S300.13 397.63 326.12 397.63S352.97 408.55 379.39 408.55S406.05 401.52 432.65 401.52S459.72 414.75 485.92 414.75S512.88 398.33 539.18 398.33S566.59 398.19 592.45 398.19S620.58 403.28 645.71 403.28S672.47 401.29 698.98 401.29S726.57 407.75 752.24 407.75S779.96 410.9 805.51 410.9S833.26 406.8 858.78 406.8S886.83 405.94 912.04 405.94S939.27 398.46 965.31 398.46S992.92 413.85 1018.57 413.85S1046.56 395.52 1071.84 395.52S1099.91 405.09 1125.1 405.09S1152.61 408.54 1178.37 408.54S1206.41 407.91 1231.63 407.91S1259.73 405.08 1284.9 405.08S1311.91 414.56 1338.16 414.56S1364.92 397.89 1391.43 397.89S1419.56 405.94 1444.69 405.94S1472.75 406.13 1497.96 406.13L1466 624 L-100 624 Z;M-100 411.4C-72.57 402.13 -72.48 401.95 -46.73 401.95S-18.94 404.81 6.53 404.81S33.5 412.51 59.8 412.51S86.44 408.05 113.06 408.05S140.49 401.31 166.33 401.31S193.5 400.99 219.59 400.99S246.88 409.02 272.86 409.02S299.64 402.77 326.12 402.77S352.77 408.39 379.39 408.39S407.28 405.53 432.65 405.53S460.3 409.08 485.92 409.08S513.73 397.23 539.18 397.23S566.64 402.15 592.45 402.15S620.47 402.76 645.71 402.76S673.17 400.18 698.98 400.18S725.82 402.1 752.24 402.1S778.99 401.32 805.51 401.32S832.86 400.1 858.78 400.1S885.53 405.84 912.04 405.84S940.2 403.92 965.31 403.92S993.42 409.47 1018.57 409.47S1045.88 405.13 1071.84 405.13S1099.42 401.46 1125.1 401.46S1152.16 411.93 1178.37 411.93S1205.96 410.23 1231.63 410.23S1259.38 398.01 1284.9 398.01S1313.09 409.61 1338.16 409.61S1365.87 396.3 1391.43 396.3S1418.22 407.7 1444.69 407.7S1472.53 402.12 1497.96 402.12L1466 624 L-100 624 Z"></animate>
  <animateTransform attributeName="transform" type="translate" dur="20s" begin="-4s" repeatCount="indefinite" values="0;10;0" calcMode="spline" keySplines="0.3 0 0.7 1;0.3 0 0.7 1"></animateTransform>
</path><path d="M-100 423.21C-72.03 416.73 -71.52 431.16 -45.24 431.16S-17.49 413.05 9.51 413.05S38 414.2 64.27 414.2S92.65 415.35 119.02 415.35S147.07 431.71 173.78 431.71S201.51 421.36 228.53 421.36S257.24 430.23 283.29 430.23S312.04 420.47 338.04 420.47S366.06 421.07 392.8 421.07S421.55 420.58 447.55 420.58S475.02 418.27 502.31 418.27S530.78 420.72 557.06 420.72S585.43 421.41 611.82 421.41S639.98 416.1 666.57 416.1S694.45 431.36 721.33 431.36S750.03 414.33 776.08 414.33S804.88 420.27 830.84 420.27S859.4 415.12 885.59 415.12S914.08 419.14 940.35 419.14S968.36 416.92 995.1 416.92S1023.48 420.09 1049.86 420.09S1077.78 416.14 1104.62 416.14S1133.14 419.84 1159.37 419.84S1187.87 418.98 1214.13 418.98S1242.56 425.96 1268.88 425.96S1296.58 415.15 1323.64 415.15S1351.58 424.24 1378.39 424.24S1406.03 418.59 1433.15 418.59S1461.81 427.91 1487.9 427.91L1466 624 L-100 624 Z" fill="#51696b" stroke-width="0">
  <animate attributeName="d" dur="17.5s" repeatCount="indefinite" values="M-100 423.21C-72.03 416.73 -71.52 431.16 -45.24 431.16S-17.49 413.05 9.51 413.05S38 414.2 64.27 414.2S92.65 415.35 119.02 415.35S147.07 431.71 173.78 431.71S201.51 421.36 228.53 421.36S257.24 430.23 283.29 430.23S312.04 420.47 338.04 420.47S366.06 421.07 392.8 421.07S421.55 420.58 447.55 420.58S475.02 418.27 502.31 418.27S530.78 420.72 557.06 420.72S585.43 421.41 611.82 421.41S639.98 416.1 666.57 416.1S694.45 431.36 721.33 431.36S750.03 414.33 776.08 414.33S804.88 420.27 830.84 420.27S859.4 415.12 885.59 415.12S914.08 419.14 940.35 419.14S968.36 416.92 995.1 416.92S1023.48 420.09 1049.86 420.09S1077.78 416.14 1104.62 416.14S1133.14 419.84 1159.37 419.84S1187.87 418.98 1214.13 418.98S1242.56 425.96 1268.88 425.96S1296.58 415.15 1323.64 415.15S1351.58 424.24 1378.39 424.24S1406.03 418.59 1433.15 418.59S1461.81 427.91 1487.9 427.91L1466 624 L-100 624 Z;M-100 423.76C-71.9 409.61 -71.85 415.81 -45.24 415.81S-16.61 424.28 9.51 424.28S38.36 423.39 64.27 423.39S92.25 421.06 119.02 421.06S147.63 424.58 173.78 424.58S201.84 414.51 228.53 414.51S256.89 411.38 283.29 411.38S310.67 420.29 338.04 420.29S365.57 422.18 392.8 422.18S420.85 409.94 447.55 409.94S475.87 430.58 502.31 430.58S529.85 415.62 557.06 415.62S584.95 425.21 611.82 425.21S640.59 413.19 666.57 413.19S695.2 419.76 721.33 419.76S749.26 417.89 776.08 417.89S804.05 423.4 830.84 423.4S858.37 410.44 885.59 410.44S912.99 424.58 940.35 424.58S968.24 429.18 995.1 429.18S1023.52 428.28 1049.86 428.28S1077.62 413.45 1104.62 413.45S1132.21 431.24 1159.37 431.24S1187.54 413.3 1214.13 413.3S1241.82 421.73 1268.88 421.73S1296.48 420.46 1323.64 420.46S1351.14 420.22 1378.39 420.22S1406.5 421.91 1433.15 421.91S1461.93 432.24 1487.9 432.24L1466 624 L-100 624 Z;M-100 423.21C-72.03 416.73 -71.52 431.16 -45.24 431.16S-17.49 413.05 9.51 413.05S38 414.2 64.27 414.2S92.65 415.35 119.02 415.35S147.07 431.71 173.78 431.71S201.51 421.36 228.53 421.36S257.24 430.23 283.29 430.23S312.04 420.47 338.04 420.47S366.06 421.07 392.8 421.07S421.55 420.58 447.55 420.58S475.02 418.27 502.31 418.27S530.78 420.72 557.06 420.72S585.43 421.41 611.82 421.41S639.98 416.1 666.57 416.1S694.45 431.36 721.33 431.36S750.03 414.33 776.08 414.33S804.88 420.27 830.84 420.27S859.4 415.12 885.59 415.12S914.08 419.14 940.35 419.14S968.36 416.92 995.1 416.92S1023.48 420.09 1049.86 420.09S1077.78 416.14 1104.62 416.14S1133.14 419.84 1159.37 419.84S1187.87 418.98 1214.13 418.98S1242.56 425.96 1268.88 425.96S1296.58 415.15 1323.64 415.15S1351.58 424.24 1378.39 424.24S1406.03 418.59 1433.15 418.59S1461.81 427.91 1487.9 427.91L1466 624 L-100 624 Z"></animate>
  <animateTransform attributeName="transform" type="translate" dur="17.5s" begin="-5.25s" repeatCount="indefinite" values="0;10;0" calcMode="spline" keySplines="0.3 0 0.7 1;0.3 0 0.7 1"></animateTransform>
</path><path d="M-100 439.47C-70.73 431.17 -71.47 438.46 -43.67 438.46S-14.42 425.29 12.66 425.29S42.08 449.33 68.99 449.33S98.32 438.97 125.32 438.97S154.86 441.58 181.65 441.58S210.47 435.39 237.99 435.39S267.68 441.51 294.32 441.51S323.3 433.93 350.65 433.93S379.12 439.57 406.98 439.57S435.83 435.75 463.31 435.75S491.81 447.6 519.64 447.6S549.22 436.5 575.97 436.5S604.23 441.46 632.3 441.46S661.31 435.74 688.63 435.74S717.35 438.07 744.96 438.07S774.58 432.78 801.29 432.78S830.72 433.03 857.63 433.03S887.01 430.33 913.96 430.33S943.58 448.63 970.29 448.63S999.37 427.98 1026.62 427.98S1055.14 436.8 1082.95 436.8S1111.42 433.09 1139.28 433.09S1168.44 437.73 1195.61 437.73S1225.16 428.2 1251.94 428.2S1281.63 449.72 1308.27 449.72S1336.85 424.74 1364.6 424.74S1392.83 444.74 1420.94 444.74S1450.48 438.18 1477.27 438.18L1466 624 L-100 624 Z" fill="#677d7f" stroke-width="0">
  <animate attributeName="d" dur="15s" repeatCount="indefinite" values="M-100 439.47C-70.73 431.17 -71.47 438.46 -43.67 438.46S-14.42 425.29 12.66 425.29S42.08 449.33 68.99 449.33S98.32 438.97 125.32 438.97S154.86 441.58 181.65 441.58S210.47 435.39 237.99 435.39S267.68 441.51 294.32 441.51S323.3 433.93 350.65 433.93S379.12 439.57 406.98 439.57S435.83 435.75 463.31 435.75S491.81 447.6 519.64 447.6S549.22 436.5 575.97 436.5S604.23 441.46 632.3 441.46S661.31 435.74 688.63 435.74S717.35 438.07 744.96 438.07S774.58 432.78 801.29 432.78S830.72 433.03 857.63 433.03S887.01 430.33 913.96 430.33S943.58 448.63 970.29 448.63S999.37 427.98 1026.62 427.98S1055.14 436.8 1082.95 436.8S1111.42 433.09 1139.28 433.09S1168.44 437.73 1195.61 437.73S1225.16 428.2 1251.94 428.2S1281.63 449.72 1308.27 449.72S1336.85 424.74 1364.6 424.74S1392.83 444.74 1420.94 444.74S1450.48 438.18 1477.27 438.18L1466 624 L-100 624 Z;M-100 439.32C-71.53 425.65 -71.74 439.09 -43.67 439.09S-15.33 431.84 12.66 431.84S40.89 440.93 68.99 440.93S98.18 428.29 125.32 428.29S153.68 439.51 181.65 439.51S210.65 437.23 237.99 437.23S267.16 449.36 294.32 449.36S323.39 424.67 350.65 424.67S379.01 444.03 406.98 444.03S436.62 428.35 463.31 428.35S491.98 452.02 519.64 452.02S548.49 446.6 575.97 446.6S604.62 450.73 632.3 450.73S661.78 433.08 688.63 433.08S717.18 439.41 744.96 439.41S774.28 439.3 801.29 439.3S830.39 432.77 857.63 432.77S885.92 434.65 913.96 434.65S942.27 440.54 970.29 440.54S999.66 424.66 1026.62 424.66S1056.2 433.85 1082.95 433.85S1111.93 425.36 1139.28 425.36S1167.97 444.43 1195.61 444.43S1225.15 424.55 1251.94 424.55S1280.33 449.74 1308.27 449.74S1336.76 429.39 1364.6 429.39S1393.41 433.71 1420.94 433.71S1449.58 424.58 1477.27 424.58L1466 624 L-100 624 Z;M-100 439.47C-70.73 431.17 -71.47 438.46 -43.67 438.46S-14.42 425.29 12.66 425.29S42.08 449.33 68.99 449.33S98.32 438.97 125.32 438.97S154.86 441.58 181.65 441.58S210.47 435.39 237.99 435.39S267.68 441.51 294.32 441.51S323.3 433.93 350.65 433.93S379.12 439.57 406.98 439.57S435.83 435.75 463.31 435.75S491.81 447.6 519.64 447.6S549.22 436.5 575.97 436.5S604.23 441.46 632.3 441.46S661.31 435.74 688.63 435.74S717.35 438.07 744.96 438.07S774.58 432.78 801.29 432.78S830.72 433.03 857.63 433.03S887.01 430.33 913.96 430.33S943.58 448.63 970.29 448.63S999.37 427.98 1026.62 427.98S1055.14 436.8 1082.95 436.8S1111.42 433.09 1139.28 433.09S1168.44 437.73 1195.61 437.73S1225.16 428.2 1251.94 428.2S1281.63 449.72 1308.27 449.72S1336.85 424.74 1364.6 424.74S1392.83 444.74 1420.94 444.74S1450.48 438.18 1477.27 438.18L1466 624 L-100 624 Z"></animate>
  <animateTransform attributeName="transform" type="translate" dur="15s" begin="-6s" repeatCount="indefinite" values="0;10;0" calcMode="spline" keySplines="0.3 0 0.7 1;0.3 0 0.7 1"></animateTransform>
</path><path d="M-100 439.95C-70.6 442.89 -69.59 465.71 -42 465.71S-12.73 467.72 16 467.72S45.99 459.5 74 459.5S103.78 451.56 132 451.56S161.94 459.13 190 459.13S219.83 448.98 248 448.98S277.19 459.86 306 459.86S336.55 450.77 364 450.77S393.84 456.27 422 456.27S451.49 441.12 480 441.12S510.48 466.09 538 466.09S568.16 448.65 596 448.65S625.62 452.76 654 452.76S684.08 455.07 712 455.07S742.5 471.05 770 471.05S799.06 441.09 828 441.09S857.43 456.79 886 456.79S916.09 452.17 944 452.17S974.02 465.06 1002 465.06S1031.6 448.86 1060 448.86S1090.2 469.69 1118 469.69S1148.41 448.44 1176 448.44S1205.81 458 1234 458S1263.84 441.38 1292 441.38S1321.32 464.64 1350 464.64S1379.54 467.56 1408 467.56S1437.9 467.55 1466 467.55S1496.27 459.43 1524 459.43L1466 624 L-100 624 Z" fill="#7e9193" stroke-width="0">
  <animate attributeName="d" dur="12.5s" repeatCount="indefinite" values="M-100 439.95C-70.6 442.89 -69.59 465.71 -42 465.71S-12.73 467.72 16 467.72S45.99 459.5 74 459.5S103.78 451.56 132 451.56S161.94 459.13 190 459.13S219.83 448.98 248 448.98S277.19 459.86 306 459.86S336.55 450.77 364 450.77S393.84 456.27 422 456.27S451.49 441.12 480 441.12S510.48 466.09 538 466.09S568.16 448.65 596 448.65S625.62 452.76 654 452.76S684.08 455.07 712 455.07S742.5 471.05 770 471.05S799.06 441.09 828 441.09S857.43 456.79 886 456.79S916.09 452.17 944 452.17S974.02 465.06 1002 465.06S1031.6 448.86 1060 448.86S1090.2 469.69 1118 469.69S1148.41 448.44 1176 448.44S1205.81 458 1234 458S1263.84 441.38 1292 441.38S1321.32 464.64 1350 464.64S1379.54 467.56 1408 467.56S1437.9 467.55 1466 467.55S1496.27 459.43 1524 459.43L1466 624 L-100 624 Z;M-100 443.72C-70.79 454.28 -70.69 470.61 -42 470.61S-12.52 446.1 16 446.1S45.84 467.21 74 467.21S104.46 456.33 132 456.33S161.19 462.65 190 462.65S220.48 445.39 248 445.39S278.48 459.52 306 459.52S336.41 454.64 364 454.64S394.23 459.66 422 459.66S452.16 449.3 480 449.3S509.14 467.84 538 467.84S567.04 449.41 596 449.41S626.41 456.29 654 456.29S683.53 441.22 712 441.22S742.1 440.34 770 440.34S800.11 441.45 828 441.45S857.24 468.36 886 468.36S915.71 446.8 944 446.8S973.38 462.37 1002 462.37S1032.08 446.07 1060 446.07S1089.67 460.14 1118 460.14S1148.38 441.36 1176 441.36S1205.43 462.31 1234 462.31S1263.94 443.86 1292 443.86S1321.41 470.62 1350 470.62S1379.61 447.79 1408 447.79S1437.71 464.77 1466 464.77S1496.21 454.32 1524 454.32L1466 624 L-100 624 Z;M-100 439.95C-70.6 442.89 -69.59 465.71 -42 465.71S-12.73 467.72 16 467.72S45.99 459.5 74 459.5S103.78 451.56 132 451.56S161.94 459.13 190 459.13S219.83 448.98 248 448.98S277.19 459.86 306 459.86S336.55 450.77 364 450.77S393.84 456.27 422 456.27S451.49 441.12 480 441.12S510.48 466.09 538 466.09S568.16 448.65 596 448.65S625.62 452.76 654 452.76S684.08 455.07 712 455.07S742.5 471.05 770 471.05S799.06 441.09 828 441.09S857.43 456.79 886 456.79S916.09 452.17 944 452.17S974.02 465.06 1002 465.06S1031.6 448.86 1060 448.86S1090.2 469.69 1118 469.69S1148.41 448.44 1176 448.44S1205.81 458 1234 458S1263.84 441.38 1292 441.38S1321.32 464.64 1350 464.64S1379.54 467.56 1408 467.56S1437.9 467.55 1466 467.55S1496.27 459.43 1524 459.43L1466 624 L-100 624 Z"></animate>
  <animateTransform attributeName="transform" type="translate" dur="12.5s" begin="-6.25s" repeatCount="indefinite" values="0;10;0" calcMode="spline" keySplines="0.3 0 0.7 1;0.3 0 0.7 1"></animateTransform>
</path><path d="M-100 456.24C-69.65 464.24 -69.56 483.41 -40.23 483.41S-8.84 469.57 19.54 469.57S49.56 476.6 79.31 476.6S110.42 475.78 139.08 475.78S169.45 478.98 198.85 478.98S229.81 469.49 258.63 469.49S289.75 476.95 318.4 476.95S349.18 455.93 378.17 455.93S408.36 487.45 437.94 487.45S469.22 470.6 497.71 470.6S527.65 485.64 557.48 485.64S588.57 463.21 617.25 463.21S647.52 464.5 677.02 464.5S707.34 463.24 736.79 463.24S767.59 475.17 796.56 475.17S826.62 461.84 856.34 461.84S886.62 488.61 916.11 488.61S946.6 458.26 975.88 458.26S1005.79 479.19 1035.65 479.19S1066.03 467.03 1095.42 467.03S1125.5 481.56 1155.19 481.56S1186.15 464.12 1214.96 464.12S1246.06 483.85 1274.73 483.85S1306.07 465.89 1334.5 465.89S1364.47 464.98 1394.27 464.98S1424.43 480.88 1454.05 480.88S1484.25 477.97 1513.82 477.97L1466 624 L-100 624 Z" fill="#95a6a7" stroke-width="0">
  <animate attributeName="d" dur="10s" repeatCount="indefinite" values="M-100 456.24C-69.65 464.24 -69.56 483.41 -40.23 483.41S-8.84 469.57 19.54 469.57S49.56 476.6 79.31 476.6S110.42 475.78 139.08 475.78S169.45 478.98 198.85 478.98S229.81 469.49 258.63 469.49S289.75 476.95 318.4 476.95S349.18 455.93 378.17 455.93S408.36 487.45 437.94 487.45S469.22 470.6 497.71 470.6S527.65 485.64 557.48 485.64S588.57 463.21 617.25 463.21S647.52 464.5 677.02 464.5S707.34 463.24 736.79 463.24S767.59 475.17 796.56 475.17S826.62 461.84 856.34 461.84S886.62 488.61 916.11 488.61S946.6 458.26 975.88 458.26S1005.79 479.19 1035.65 479.19S1066.03 467.03 1095.42 467.03S1125.5 481.56 1155.19 481.56S1186.15 464.12 1214.96 464.12S1246.06 483.85 1274.73 483.85S1306.07 465.89 1334.5 465.89S1364.47 464.98 1394.27 464.98S1424.43 480.88 1454.05 480.88S1484.25 477.97 1513.82 477.97L1466 624 L-100 624 Z;M-100 467.21C-69.08 457.11 -69.54 480.42 -40.23 480.42S-9.58 461.73 19.54 461.73S50.82 455.66 79.31 455.66S110.21 465.94 139.08 465.94S168.99 481.11 198.85 481.11S228.86 465.3 258.63 465.3S289.1 487.4 318.4 487.4S348.71 468.68 378.17 468.68S408.17 483.57 437.94 483.57S468.8 464.8 497.71 464.8S528.78 489.07 557.48 489.07S588.44 469.13 617.25 469.13S647.55 482.78 677.02 482.78S708.34 469.84 736.79 469.84S767.45 476.54 796.56 476.54S826.52 462.01 856.34 462.01S886.41 477.37 916.11 477.37S947.38 456.3 975.88 456.3S1005.87 488.13 1035.65 488.13S1066.63 463.19 1095.42 463.19S1126.23 487.74 1155.19 487.74S1186.41 460.53 1214.96 460.53S1245.97 488.61 1274.73 488.61S1305.07 467.5 1334.5 467.5S1365.47 487.73 1394.27 487.73S1424.42 458.54 1454.05 458.54S1484.28 469.19 1513.82 469.19L1466 624 L-100 624 Z;M-100 456.24C-69.65 464.24 -69.56 483.41 -40.23 483.41S-8.84 469.57 19.54 469.57S49.56 476.6 79.31 476.6S110.42 475.78 139.08 475.78S169.45 478.98 198.85 478.98S229.81 469.49 258.63 469.49S289.75 476.95 318.4 476.95S349.18 455.93 378.17 455.93S408.36 487.45 437.94 487.45S469.22 470.6 497.71 470.6S527.65 485.64 557.48 485.64S588.57 463.21 617.25 463.21S647.52 464.5 677.02 464.5S707.34 463.24 736.79 463.24S767.59 475.17 796.56 475.17S826.62 461.84 856.34 461.84S886.62 488.61 916.11 488.61S946.6 458.26 975.88 458.26S1005.79 479.19 1035.65 479.19S1066.03 467.03 1095.42 467.03S1125.5 481.56 1155.19 481.56S1186.15 464.12 1214.96 464.12S1246.06 483.85 1274.73 483.85S1306.07 465.89 1334.5 465.89S1364.47 464.98 1394.27 464.98S1424.43 480.88 1454.05 480.88S1484.25 477.97 1513.82 477.97L1466 624 L-100 624 Z"></animate>
  <animateTransform attributeName="transform" type="translate" dur="10s" begin="-6s" repeatCount="indefinite" values="0;10;0" calcMode="spline" keySplines="0.3 0 0.7 1;0.3 0 0.7 1"></animateTransform>
</path><path d="M-100 485.35C-68.15 471.17 -68.84 503.99 -38.35 503.99S-6.99 483.99 23.31 483.99S55.05 484.99 84.96 484.99S117.09 472.12 146.61 472.12S178.66 494.9 208.27 494.9S240.08 481.56 269.92 481.56S302.03 504.96 331.57 504.96S363.45 477.04 393.23 477.04S425.28 506.2 454.88 506.2S486.95 495.83 516.54 495.83S548.36 493.35 578.19 493.35S609.18 478.58 639.84 478.58S670.77 493.34 701.5 493.34S732.74 479.13 763.15 479.13S794.66 499.25 824.8 499.25S856.51 474.85 886.46 474.85S918.26 501.86 948.11 501.86S979.86 483.75 1009.76 483.75S1041.25 475.08 1071.42 475.08S1103.54 486.46 1133.07 486.46S1164.5 500.57 1194.72 500.57S1225.74 471.84 1256.38 471.84S1287.66 504.44 1318.03 504.44S1348.97 476.26 1379.69 476.26S1411.56 501.12 1441.34 501.12S1472.18 486.45 1502.99 486.45L1466 624 L-100 624 Z" fill="#adbcbc" stroke-width="0">
  <animate attributeName="d" dur="7.5s" repeatCount="indefinite" values="M-100 485.35C-68.15 471.17 -68.84 503.99 -38.35 503.99S-6.99 483.99 23.31 483.99S55.05 484.99 84.96 484.99S117.09 472.12 146.61 472.12S178.66 494.9 208.27 494.9S240.08 481.56 269.92 481.56S302.03 504.96 331.57 504.96S363.45 477.04 393.23 477.04S425.28 506.2 454.88 506.2S486.95 495.83 516.54 495.83S548.36 493.35 578.19 493.35S609.18 478.58 639.84 478.58S670.77 493.34 701.5 493.34S732.74 479.13 763.15 479.13S794.66 499.25 824.8 499.25S856.51 474.85 886.46 474.85S918.26 501.86 948.11 501.86S979.86 483.75 1009.76 483.75S1041.25 475.08 1071.42 475.08S1103.54 486.46 1133.07 486.46S1164.5 500.57 1194.72 500.57S1225.74 471.84 1256.38 471.84S1287.66 504.44 1318.03 504.44S1348.97 476.26 1379.69 476.26S1411.56 501.12 1441.34 501.12S1472.18 486.45 1502.99 486.45L1466 624 L-100 624 Z;M-100 497.32C-67.9 498.62 -68.36 505.86 -38.35 505.86S-7.39 483.47 23.31 483.47S55.17 478.67 84.96 478.67S116.62 482.32 146.61 482.32S178.7 496.98 208.27 496.98S240.21 480.64 269.92 480.64S301.14 496.98 331.57 496.98S362.89 493.22 393.23 493.22S425.52 478.19 454.88 478.19S487.21 485.28 516.54 485.28S548.92 500.93 578.19 500.93S609.34 475.47 639.84 475.47S671.53 504.35 701.5 504.35S732.5 485.65 763.15 485.65S794.46 483.49 824.8 483.49S856.28 471.36 886.46 471.36S918.2 493.47 948.11 493.47S980.39 477 1009.76 477S1041.32 497.02 1071.42 497.02S1103.17 473.6 1133.07 473.6S1164.34 505.76 1194.72 505.76S1226.35 497.82 1256.38 497.82S1287.75 501.65 1318.03 501.65S1349.91 486.66 1379.69 486.66S1411.37 498.39 1441.34 498.39S1473.23 479.08 1502.99 479.08L1466 624 L-100 624 Z;M-100 485.35C-68.15 471.17 -68.84 503.99 -38.35 503.99S-6.99 483.99 23.31 483.99S55.05 484.99 84.96 484.99S117.09 472.12 146.61 472.12S178.66 494.9 208.27 494.9S240.08 481.56 269.92 481.56S302.03 504.96 331.57 504.96S363.45 477.04 393.23 477.04S425.28 506.2 454.88 506.2S486.95 495.83 516.54 495.83S548.36 493.35 578.19 493.35S609.18 478.58 639.84 478.58S670.77 493.34 701.5 493.34S732.74 479.13 763.15 479.13S794.66 499.25 824.8 499.25S856.51 474.85 886.46 474.85S918.26 501.86 948.11 501.86S979.86 483.75 1009.76 483.75S1041.25 475.08 1071.42 475.08S1103.54 486.46 1133.07 486.46S1164.5 500.57 1194.72 500.57S1225.74 471.84 1256.38 471.84S1287.66 504.44 1318.03 504.44S1348.97 476.26 1379.69 476.26S1411.56 501.12 1441.34 501.12S1472.18 486.45 1502.99 486.45L1466 624 L-100 624 Z"></animate>
  <animateTransform attributeName="transform" type="translate" dur="7.5s" begin="-5.25s" repeatCount="indefinite" values="0;10;0" calcMode="spline" keySplines="0.3 0 0.7 1;0.3 0 0.7 1"></animateTransform>
</path><path d="M-100 486.83C-67.31 495.66 -66.89 515.31 -36.34 515.31S-2.96 492.65 27.32 492.65S59.62 515.66 90.98 515.66S124.32 492.08 154.63 492.08S186.91 498.95 218.29 498.95S250.59 500.81 281.95 500.81S315.27 491.41 345.61 491.41S378.89 500.04 409.27 500.04S441.26 523.29 472.93 523.29S505.32 501.73 536.59 501.73S569.11 517.74 600.24 517.74S633.09 500.26 663.9 500.26S696.81 513.44 727.56 513.44S759.92 494.4 791.22 494.4S824.47 525.02 854.88 525.02S888.26 498.68 918.54 498.68S951.17 523.75 982.2 523.75S1015.44 498.65 1045.85 498.65S1077.81 517.09 1109.51 517.09S1141.92 486.98 1173.17 486.98S1205.91 524.3 1236.83 524.3S1269.05 495.76 1300.49 495.76S1333.69 512.05 1364.15 512.05S1396.08 514.67 1427.8 514.67S1461.13 523.27 1491.46 523.27L1466 624 L-100 624 Z" fill="#c6d2d2" stroke-width="0">
  <animate attributeName="d" dur="5s" repeatCount="indefinite" values="M-100 486.83C-67.31 495.66 -66.89 515.31 -36.34 515.31S-2.96 492.65 27.32 492.65S59.62 515.66 90.98 515.66S124.32 492.08 154.63 492.08S186.91 498.95 218.29 498.95S250.59 500.81 281.95 500.81S315.27 491.41 345.61 491.41S378.89 500.04 409.27 500.04S441.26 523.29 472.93 523.29S505.32 501.73 536.59 501.73S569.11 517.74 600.24 517.74S633.09 500.26 663.9 500.26S696.81 513.44 727.56 513.44S759.92 494.4 791.22 494.4S824.47 525.02 854.88 525.02S888.26 498.68 918.54 498.68S951.17 523.75 982.2 523.75S1015.44 498.65 1045.85 498.65S1077.81 517.09 1109.51 517.09S1141.92 486.98 1173.17 486.98S1205.91 524.3 1236.83 524.3S1269.05 495.76 1300.49 495.76S1333.69 512.05 1364.15 512.05S1396.08 514.67 1427.8 514.67S1461.13 523.27 1491.46 523.27L1466 624 L-100 624 Z;M-100 524.69C-67.63 520.24 -67.68 513.76 -36.34 513.76S-3.2 486.88 27.32 486.88S59.46 516.57 90.98 516.57S123.05 497.72 154.63 497.72S187.82 523.3 218.29 523.3S250.73 494.06 281.95 494.06S314.77 517.84 345.61 517.84S378.55 496.03 409.27 496.03S442.63 518.38 472.93 518.38S506.15 489.57 536.59 489.57S569.56 515.23 600.24 515.23S632.46 516.33 663.9 516.33S696.97 521.27 727.56 521.27S759.82 493.87 791.22 493.87S824.45 526.5 854.88 526.5S887.04 496.75 918.54 496.75S951.74 512.74 982.2 512.74S1015.58 514.89 1045.85 514.89S1078.81 513.54 1109.51 513.54S1142.06 493.63 1173.17 493.63S1205.54 512.42 1236.83 512.42S1269.39 494.9 1300.49 494.9S1332.99 517.97 1364.15 517.97S1396.48 495.87 1427.8 495.87S1460 512.93 1491.46 512.93L1466 624 L-100 624 Z;M-100 486.83C-67.31 495.66 -66.89 515.31 -36.34 515.31S-2.96 492.65 27.32 492.65S59.62 515.66 90.98 515.66S124.32 492.08 154.63 492.08S186.91 498.95 218.29 498.95S250.59 500.81 281.95 500.81S315.27 491.41 345.61 491.41S378.89 500.04 409.27 500.04S441.26 523.29 472.93 523.29S505.32 501.73 536.59 501.73S569.11 517.74 600.24 517.74S633.09 500.26 663.9 500.26S696.81 513.44 727.56 513.44S759.92 494.4 791.22 494.4S824.47 525.02 854.88 525.02S888.26 498.68 918.54 498.68S951.17 523.75 982.2 523.75S1015.44 498.65 1045.85 498.65S1077.81 517.09 1109.51 517.09S1141.92 486.98 1173.17 486.98S1205.91 524.3 1236.83 524.3S1269.05 495.76 1300.49 495.76S1333.69 512.05 1364.15 512.05S1396.08 514.67 1427.8 514.67S1461.13 523.27 1491.46 523.27L1466 624 L-100 624 Z"></animate>
  <animateTransform attributeName="transform" type="translate" dur="5s" begin="-4s" repeatCount="indefinite" values="0;10;0" calcMode="spline" keySplines="0.3 0 0.7 1;0.3 0 0.7 1"></animateTransform>
</path><path d="M-100 506.94C-65.67 509.26 -66.45 506.22 -34.2 506.22S-0.71 511.84 31.6 511.84S64.89 536.47 97.39 536.47S130.49 511.26 163.19 511.26S196.24 540.27 228.99 540.27S263.26 509.34 294.79 509.34S329.11 541.48 360.59 541.48S393.76 509.34 426.39 509.34S460.31 503.55 492.18 503.55S526.13 503.64 557.98 503.64S591.96 506.67 623.78 506.67S656.76 507.94 689.58 507.94S723.29 539.84 755.38 539.84S789.33 502.47 821.18 502.47S855.62 541.55 886.97 541.55S921.12 508.53 952.77 508.53S986.39 513.14 1018.57 513.14S1052.3 515.81 1084.37 515.81S1118.44 535.56 1150.17 535.56S1183.54 509.82 1215.97 509.82S1249.99 539.86 1281.76 539.86S1315.79 512.17 1347.56 512.17S1380.97 536.07 1413.36 536.07S1446.5 513.44 1479.16 513.44L1466 624 L-100 624 Z" fill="#dfe8e8" stroke-width="0">
  <animate attributeName="d" dur="2.5s" repeatCount="indefinite" values="M-100 506.94C-65.67 509.26 -66.45 506.22 -34.2 506.22S-0.71 511.84 31.6 511.84S64.89 536.47 97.39 536.47S130.49 511.26 163.19 511.26S196.24 540.27 228.99 540.27S263.26 509.34 294.79 509.34S329.11 541.48 360.59 541.48S393.76 509.34 426.39 509.34S460.31 503.55 492.18 503.55S526.13 503.64 557.98 503.64S591.96 506.67 623.78 506.67S656.76 507.94 689.58 507.94S723.29 539.84 755.38 539.84S789.33 502.47 821.18 502.47S855.62 541.55 886.97 541.55S921.12 508.53 952.77 508.53S986.39 513.14 1018.57 513.14S1052.3 515.81 1084.37 515.81S1118.44 535.56 1150.17 535.56S1183.54 509.82 1215.97 509.82S1249.99 539.86 1281.76 539.86S1315.79 512.17 1347.56 512.17S1380.97 536.07 1413.36 536.07S1446.5 513.44 1479.16 513.44L1466 624 L-100 624 Z;M-100 508.29C-66.92 505.09 -65.6 515.61 -34.2 515.61S0.2 505.17 31.6 505.17S65.54 536.49 97.39 536.49S131.16 502.71 163.19 502.71S197.48 541.04 228.99 541.04S261.95 504.78 294.79 504.78S328.8 538.47 360.59 538.47S393.79 511.93 426.39 511.93S460.82 535.81 492.18 535.81S526.46 535.89 557.98 535.89S592.17 510.98 623.78 510.98S657.12 513.76 689.58 513.76S722.92 536.77 755.38 536.77S788.8 507.55 821.18 507.55S855.24 532.26 886.97 532.26S921.04 508.98 952.77 508.98S986.17 541.34 1018.57 541.34S1051.7 512.95 1084.37 512.95S1117.6 530.65 1150.17 530.65S1183.32 502.7 1215.97 502.7S1249.52 544.84 1281.76 544.84S1315.71 506.78 1347.56 506.78S1381.83 545.09 1413.36 545.09S1447.3 509.14 1479.16 509.14L1466 624 L-100 624 Z;M-100 506.94C-65.67 509.26 -66.45 506.22 -34.2 506.22S-0.71 511.84 31.6 511.84S64.89 536.47 97.39 536.47S130.49 511.26 163.19 511.26S196.24 540.27 228.99 540.27S263.26 509.34 294.79 509.34S329.11 541.48 360.59 541.48S393.76 509.34 426.39 509.34S460.31 503.55 492.18 503.55S526.13 503.64 557.98 503.64S591.96 506.67 623.78 506.67S656.76 507.94 689.58 507.94S723.29 539.84 755.38 539.84S789.33 502.47 821.18 502.47S855.62 541.55 886.97 541.55S921.12 508.53 952.77 508.53S986.39 513.14 1018.57 513.14S1052.3 515.81 1084.37 515.81S1118.44 535.56 1150.17 535.56S1183.54 509.82 1215.97 509.82S1249.99 539.86 1281.76 539.86S1315.79 512.17 1347.56 512.17S1380.97 536.07 1413.36 536.07S1446.5 513.44 1479.16 513.44L1466 624 L-100 624 Z"></animate>
  <animateTransform attributeName="transform" type="translate" dur="2.5s" begin="-2.25s" repeatCount="indefinite" values="0;10;0" calcMode="spline" keySplines="0.3 0 0.7 1;0.3 0 0.7 1"></animateTransform>
</path></g>
</svg>